PathFileType	4	(X/Y/Z)	C:/Users/beibeiliu/ov580/test_trc/User2\sequence.25_training_dense_left.trc
DataRate	CameraRate	NumFrames	NumMarkers	Units	OrigDataRate	OrigDataStartFrame	OrigNumFrames
120	120	11	19	mm	120	89	118
Frame#	Time	ThumbCMC			ThumbMCP			ThumbIP			ThumbTip			IndexMCP			IndexPIP			IndexTip			MiddleMCP			MiddlePIP			MiddleTip			RingMCP			RingPIP			RingTip			PinkyMCP			PinkyPIP			PinkyTip			BackHand1			BackHand2			BackHand3	
		X0	Y0	Z0	X1	Y1	Z1	X2	Y2	Z2	X3	Y3	Z3	X4	Y4	Z4	X5	Y5	Z5	X6	Y6	Z6	X7	Y7	Z7	X8	Y8	Z8	X9	Y9	Z9	X10	Y10	Z10	X11	Y11	Z11	X12	Y12	Z12	X13	Y13	Z13	X14	Y14	Z14	X15	Y15	Z15	X16	Y16	Z16	X17	Y17	Z17	X18	Y18	Z18	
88	0.733333	-213.431	58.4384	0.382072	-196.807	63.9641	-23.2153	-176.769	78.6843	-50.7114	-164.712	83.0145	-71.0435	-252.226	89.354	-67.9414	-240.946	72.0515	-97.6057	-229.465	44.5023	-82.3211	-272.734	78.9	-78.7303	-256.96	55.0156	-100.44	-239.699	33.1121	-76.2785	-291.022	62.6854	-71.7223	-276.552	50.7541	-97.2943	-255.2	27.6159	-78.8253	-304.113	51.6327	-50.119	-315.566	61.3259	-70.3174	-330.658	71.5648	-85.4973	-286.069	54.1468	-8.25107	-282.495	43.6471	20.452	-253.974	71.1747	3.00914	
89	0.741667	-197.26	44.4118	-0.545185	-179.662	46.7204	-24.4058	-160.399	54.1013	-52.172	-144.618	54.2509	-68.3299	-225.745	87.2831	-67.7495	-221.602	69.1026	-96.174	-212.489	37.5737	-81.2203	-248.702	83.6414	-76.6596	-238.646	57.9895	-99.9331	-231.312	29.385	-74.1664	-268.289	73.5326	-71.8836	-261.956	54.7044	-97.4363	-244.029	29.3572	-78.469	-289.112	61.6634	-46.9721	-296.496	77.8133	-68.9875	-304.109	95.193	-86.2159	-270.109	59.5849	-8.29564	-267.395	48.3913	22.025	-231.88	68.7267	5.03474	
90	0.75	-181.522	36.1962	2.75998	-167.202	36.091	-23.9938	-141.871	41.2238	-51.5155	-129.82	41.3133	-70.4491	-209.504	80.5923	-67.4235	-206.957	64.3295	-96.8767	-202.496	29.5909	-79.2004	-230.254	77.6144	-73.2108	-226.267	53.337	-100.117	-218.756	23.3691	-70.3755	-250.824	69.923	-70.8158	-245.718	48.8343	-97.6074	-233.152	19.623	-73.1646	-275.231	64.8018	-51.5852	-277.574	76.9368	-70.3306	-284.271	91.6885	-87.991	-249.95	59.6262	-9.48634	-253.687	48.4203	18.6122	-214.649	64.8347	6.46446	
91	0.758333	-173.248	37.7742	3.48235	-153.444	36.4971	-19.4204	-131.093	39.4687	-44.1158	-117.727	38.6222	-61.9629	-196.894	71.4685	-76.7267	-195.267	50.24	-98.2187	-188.272	20.9369	-78.1758	-218.113	66.8968	-78.2877	-209.896	34.7992	-100.299	-204.64	13.2202	-67.7234	-240.313	56.7248	-82.5785	-233.788	32.4715	-99.3733	-220.613	9.2738	-73.4966	-261.726	49.9135	-55.6689	-270.526	60.7316	-81.3203	-278.012	73.7659	-102.076	-243.332	55.5058	-15.1824	-244.975	47.6034	14.6565	-210.22	61.2431	-0.0168548	
92	0.766667	-172.822	44.8958	2.90908	-153.935	44.7398	-18.1027	-127.6	54.9845	-42.6614	-112.156	55.2241	-59.566	-196.083	58.6113	-79.9944	-183.385	34.649	-101.215	-174.614	12.9862	-77.1331	-216.123	46.5887	-88.3062	-198.173	17.1112	-101.321	-185.949	4.426	-63.7442	-232.834	31.6888	-88.6677	-214.46	7.49062	-100.231	-198.914	-3.38308	-71.5259	-255.858	26.112	-67.1741	-259.965	29.4653	-93.3295	-264.398	34.9989	-120.007	-244.414	39.3783	-24.2449	-243.247	37.4645	10.4319	-215.704	55.3902	-4.5285	
93	0.775	-185.098	56.6317	-2.56217	-162.526	63.6014	-24.3999	-140.432	74.1763	-42.4387	-120.336	83.5828	-55.3252	-197.084	50.6791	-87.4701	-174.175	29.3183	-102.762	-158.092	16.6417	-70.1618	-206.427	28.6264	-97.2382	-179.908	7.15252	-100.756	-172.658	2.0799	-60.3383	-218.441	5.92233	-94.6193	-193.636	-8.26252	-97.7729	-179.205	-5.07753	-62.1891	-241.257	-0.190669	-73.5388	-243.006	-5.84967	-101.484	-241.795	-11.3264	-128.834	-242.592	25.4579	-33.4898	-245.252	26.051	-1.20801	-226.052	52.8885	-15.85	
94	0.783333	-208.36	62.1657	-9.74375	-185.626	80.0245	-28.6171	-166.855	96.377	-53.4597	-152.122	105.228	-64.3979	-198.692	40.7186	-94.9861	-170.317	28.1521	-100.138	-155.807	31.4454	-68.4343	-199.203	18.0746	-98.8679	-163.658	11.6614	-94.3764	-163.796	15.5298	-52.6573	-200.407	-6.96611	-91.2323	-170.759	-7.7843	-90.6612	-165.827	2.41079	-52.3759	-219.526	-22.3593	-72.6473	-213.72	-36.6867	-94.3962	-204.102	-42.8053	-122.1	-237.373	6.63581	-36.8245	-249.542	8.62877	-7.19224	-239.179	38.4818	-25.6722	
95	0.791667	-233.565	62.0259	-19.0306	-219.063	84.2626	-36.5086	-205.463	100.984	-64.6366	-195.554	120.639	-74.5075	-200.848	35.2373	-97.6461	-168.981	39.6788	-96.2192	-165.387	52.2634	-61.2635	-190.327	12.3618	-95.109	-159.058	25.5127	-91.2672	-166.553	36.3612	-49.6507	-180.334	-6.15664	-83.0942	-154.77	6.34979	-80.2706	-160.181	24.0594	-48.5715	-191.676	-28.0461	-60.1352	-172.615	-37.5378	-86.3699	-159.121	-38.9937	-106.511	-228.583	-8.27147	-39.4358	-243.4	-2.88321	-8.10278	-249.427	28.3175	-34.2283	
96	0.8	-253.011	57.5575	-28.0382	-246.101	79.7452	-48.3354	-240.673	104.641	-76.132	-234.764	120.564	-88.66	-202.481	40.5453	-95.4985	-175.715	62.0854	-96.8136	-179.659	75.7374	-61.2525	-183.819	23.9932	-87.4301	-157.65	49.6759	-81.7038	-174.943	61.1307	-48.4444	-168.593	14.419	-76.6088	-149.069	39.0817	-71.0826	-166.97	52.0093	-43.0412	-167.21	-8.03905	-53.3814	-144.331	-9.75927	-68.6664	-125.348	-13.3649	-81.9614	-214.295	-5.27598	-34.6936	-233.914	-9.05127	-8.98375	-249.592	20.1328	-35.1172	
97	0.808333	-259.508	55.0002	-28.9142	-259.537	78.5876	-49.4783	-257.324	99.7158	-74.0301	-257.505	119.825	-94.6153	-205.233	47.8638	-93.9678	-181.231	77.0033	-94.8038	-192.553	91.0955	-62.382	-178.642	37.4288	-83.5462	-163.251	71.1381	-78.5951	-187.179	78.292	-48.3993	-163.556	32.237	-70.9914	-148.871	59.6775	-65.0737	-173.188	71.4411	-39.9076	-157.698	13.0589	-45.1226	-133.887	15.5942	-59.2435	-112.892	13.2557	-70.4013	-209.103	4.98229	-33.4818	-227.132	-1.47068	-2.41686	-242.244	18.2802	-36.9494	
98	0.816667	-265.544	56.3206	-27.8218	-268.988	79.3024	-47.7504	-269.999	99.0704	-77.5846	-269.609	115.056	-93.0924	-205.806	53.8483	-91.2919	-188.316	84.4533	-95.0457	-200.011	99.1251	-65.7575	-181.128	49.2081	-84.1621	-169.659	81.4523	-83.1442	-195.82	86.8326	-48.4828	-163.352	45.3227	-69.5784	-152.605	73.1236	-67.2408	-177.788	85.5512	-44.2972	-155.408	30.5792	-43.5776	-132.641	35.9799	-57.237	-110.42	33.5571	-68.659	-203.05	14.6559	-30.4261	-220.591	5.7329	0.524436	-243.943	23.2316	-31.1797	
